0
SECTION
2
HEADER
9
$INSUNITS
70
4
9
$ACADVER
1
AC1014
9
$HANDSEED
5
FFFF
0
ENDSEC
0
SECTION
2
TABLES
0
TABLE
2
VPORT
5
8
100
AcDbSymbolTable
0
ENDTAB
0
TABLE
2
LTYPE
5
5
100
AcDbSymbolTable
0
LTYPE
5
14
100
AcDbSymbolTableRecord
100
AcDbLinetypeTableRecord
2
BYBLOCK
70
0
0
LTYPE
5
15
100
AcDbSymbolTableRecord
100
AcDbLinetypeTableRecord
2
BYLAYER
70
0
0
ENDTAB
0
TABLE
2
LAYER
5
2
100
AcDbSymbolTable
70
2
0
LAYER
5
50
100
AcDbSymbolTableRecord
100
AcDbLayerTableRecord
2
0
70
0
6
CONTINUOUS
0
ENDTAB
0
TABLE
2
STYLE
5
3
100
AcDbSymbolTable
70
1
0
STYLE
5
11
100
AcDbSymbolTableRecord
100
AcDbTextStyleTableRecord
2
STANDARD
70
0
0
ENDTAB
0
TABLE
2
VIEW
5
6
100
AcDbSymbolTable
70
0
0
ENDTAB
0
TABLE
2
UCS
5
7
100
AcDbSymbolTable
70
0
0
ENDTAB
0
TABLE
2
APPID
5
9
100
AcDbSymbolTable
70
2
0
APPID
5
12
100
AcDbSymbolTableRecord
100
AcDbRegAppTableRecord
2
ACAD
70
0
0
ENDTAB
0
TABLE
2
DIMSTYLE
5
A
100
AcDbSymbolTable
70
1
0
ENDTAB
0
TABLE
2
BLOCK_RECORD
5
1
100
AcDbSymbolTable
70
1
0
BLOCK_RECORD
5
1F
100
AcDbSymbolTableRecord
100
AcDbBlockTableRecord
2
*MODEL_SPACE
0
BLOCK_RECORD
5
1B
100
AcDbSymbolTableRecord
100
AcDbBlockTableRecord
2
*PAPER_SPACE
0
ENDTAB
0
ENDSEC
0
SECTION
2
BLOCKS
0
BLOCK
5
20
100
AcDbEntity
100
AcDbBlockBegin
2
*MODEL_SPACE
0
ENDBLK
5
21
100
AcDbEntity
100
AcDbBlockEnd
0
BLOCK
5
1C
100
AcDbEntity
100
AcDbBlockBegin
2
*PAPER_SPACE
0
ENDBLK
5
1D
100
AcDbEntity
100
AcDbBlockEnd
0
ENDSEC
0
SECTION
2
ENTITIES
0
LWPOLYLINE
5
100
100
AcDbEntity
8
0
100
AcDbPolyline
90
5
70
1
43
0.0
10
-82.000001221895218
20
-103.0000015348196
10
-96.000001430511475
20
-110.00000163912773
10
-98.000001460313797
20
-119.00000177323818
10
-77.000001147389412
20
-119.00000177323818
10
-77.000001147389412
20
-110.00000163912773
0
LINE
5
101
100
AcDbEntity
8
0
100
AcDbLine
10
-10
20
-73.094188273972151
30
0
11
-15
21
-65
31
0
0
LWPOLYLINE
5
102
100
AcDbEntity
8
0
100
AcDbPolyline
90
6
70
1
43
0.0
10
-84.00000125169754
20
-67.0000009983778
10
-83.000001236796379
20
-67.0000009983778
10
-66.691517729719237
20
-67.0000009983778
10
-66.691517729719237
20
-75.23749890714852
10
-74.761670760709379
20
-82.668388530043089
10
-85.624060242615315
20
-74.145860558415961
0
LINE
5
103
100
AcDbEntity
8
0
100
AcDbLine
10
-87.730485816318776
20
-75.011781326502174
30
0
11
-75
21
-85
31
0
0
LWPOLYLINE
5
104
100
AcDbEntity
8
0
100
AcDbPolyline
90
4
70
1
43
0.0
10
-75.00000111758709
20
-88.000001311302185
10
-80.135999389140565
20
-99.993823080241015
10
-75.00000111758709
20
-108.00000160932541
10
-67.27499365315137
20
-96.389574507418828
0
LWPOLYLINE
5
105
100
AcDbEntity
8
0
100
AcDbPolyline
90
3
70
1
43
0.0
10
-94.000001400709152
20
-101.00000150501728
10
-84.26013676640666
20
-101.00000150501728
10
-96.000001430511475
20
-108.33333494762577
0
LWPOLYLINE
5
106
100
AcDbEntity
8
0
100
AcDbPolyline
90
6
70
1
43
0.0
10
20.333166070146405
20
-97.732627832253215
10
29.000000432133675
20
-106.00000157952309
10
18.000000268220901
20
-112.00000166893005
10
21.000000312924385
20
-118.00000175833702
10
11.000000163912773
20
-118.00000175833702
10
11.000000163912773
20
-107.00000159442425
0
LWPOLYLINE
5
107
100
AcDbEntity
8
0
100
AcDbPolyline
90
4
70
1
43
0.0
10
-92.00000137090683
20
-99.000001475214958
10
-81.671993784734894
20
-97.281997142468953
10
-76.343986273068765
20
-84.731462441316765
10
-87.000001296401024
20
-77.000001147389412
0
LWPOLYLINE
5
108
100
AcDbEntity
8
0
100
AcDbPolyline
90
6
70
1
43
0.0
10
-57.098913391979799
20
-118.38271926271993
10
-57.098913391979799
20
-119.24431928742705
10
-35.965574939383764
20
-118.62889069835052
10
-35.965574939383764
20
-109.91619228857374
10
-45.145003529319681
20
-101.86571477102459
10
-52.205376364685563
20
-109.91619228857374
0
LWPOLYLINE
5
109
100
AcDbEntity
8
0
100
AcDbPolyline
90
5
70
1
43
0.0
10
-73.000001087784767
20
-119.00000177323818
10
-73.000001087784767
20
-110.00000163912773
10
-68.892772081205237
20
-102.90723843711142
10
-56.011608370327586
20
-110.25508091245737
10
-61.000000908970833
20
-119.00000177323818
0
LWPOLYLINE
5
110
100
AcDbEntity
8
0
100
AcDbPolyline
90
4
70
1
43
0.0
10
-63.000000938773155
20
-74.000001102685928
10
-63.000000938773155
20
-67.0000009983778
10
-48.000000715255737
20
-67.0000009983778
10
-54.000000804662704
20
-83.000001236796379
0
LWPOLYLINE
5
111
100
AcDbEntity
8
0
100
AcDbPolyline
90
6
70
1
43
0.0
10
-3.8830125607225403
20
-86.911221442523356
10
-6.9107195600872018
20
-90.684596722260153
10
-0.85530556135787805
20
-95.543381759215805
10
-2.6606838111077735
20
-98.328087359498085
10
-8.6372965831101034
20
-98.328087359498085
10
-8.6372965831101034
20
-83.04110608502225
0
LINE
5
112
100
AcDbEntity
8
0
100
AcDbLine
10
-75
20
-85
30
0
11
-81.365242908159388
21
-99.993823080241015
31
0
0
LWPOLYLINE
5
113
100
AcDbEntity
8
0
100
AcDbPolyline
90
4
70
1
43
0.0
10
-52.000000774860382
20
-88.000001311302185
10
-64.000000953674316
20
-78.000001162290573
10
-72.194111948982666
20
-84.731462441316765
10
-64.000000953674316
20
-93.630495133353776
0
LWPOLYLINE
5
114
100
AcDbEntity
8
0
100
AcDbPolyline
90
5
70
1
43
0.0
10
-7.7836982882019612
20
-79.293715299675299
10
-5
20
-75
10
1.6522988393313005
20
-75.74977244304479
10
5.30813321822869
20
-77.146857649837642
10
-2.003535539566089
20
-83.04110608502225
0
LWPOLYLINE
5
115
100
AcDbEntity
8
0
100
AcDbPolyline
90
6
70
1
43
0.0
10
16.343179720442549
20
-90.44642731700003
10
30.003477533066647
20
-76.78612950437595
10
36.25
20
-85.453312743177349
10
29.988171208564562
20
-97.120143228128697
10
36.801534436500525
20
-98.345112436377747
10
32.315794369315647
20
-103.79385913925738
0
LWPOLYLINE
5
116
100
AcDbEntity
8
0
100
AcDbPolyline
90
4
70
1
43
0.0
10
-8.843607341174776
20
-72.273515026778085
10
-12.5
20
-66.354408909957883
10
7.0000001043081284
20
-67.0000009983778
10
4.0000000596046439
20
-72.273515026778085
0
LINE
5
117
100
AcDbEntity
8
0
100
AcDbLine
10
-5.5228293124505834
20
-73.094188273972151
30
0
11
-10
21
-80
31
0
0
LINE
5
118
100
AcDbEntity
8
0
100
AcDbLine
10
-53.535360713305465
20
-85.078926817902783
30
0
11
-45
21
-65
31
0
0
LWPOLYLINE
5
119
100
AcDbEntity
8
0
100
AcDbPolyline
90
7
70
1
43
0.0
10
-9.1255454815014687
20
-75.039463408951391
10
-12.000000178813934
20
-79.000001177191734
10
-12.000000178813934
20
-87.000001296401024
10
-28.479703990463385
20
-75.039463408951391
10
-24.000000357627869
20
-67.0000009983778
10
-16.000000238418579
20
-67.0000009983778
10
-12.000000178813934
20
-75.00000111758709
0
LINE
5
120
100
AcDbEntity
8
0
100
AcDbLine
10
20.355578563212696
20
-111.92201811475833
30
0
11
24.37346953110065
21
-120
31
0
0
LINE
5
121
100
AcDbEntity
8
0
100
AcDbLine
10
-53.696628803930224
20
-109.91619228857374
30
0
11
-59.448766753443998
21
-120
31
0
0
LINE
5
122
100
AcDbEntity
8
0
100
AcDbLine
10
-81.365242908159388
20
-99.993823080241015
30
0
11
-94.543769930974818
21
-99.993823080241015
31
0
0
LWPOLYLINE
5
123
100
AcDbEntity
8
0
100
AcDbPolyline
90
6
70
1
43
0.0
10
-49.000000730156898
20
-78.000001162290573
10
-52.000000774860382
20
-84.00000125169754
10
-47.054771388013052
20
-88.554644054621875
10
-43.362263087128845
20
-97.853973521541349
10
-33.308308137615271
20
-97.561190092027985
10
-37.724525444100799
20
-86.439249019969566
0
LWPOLYLINE
5
124
100
AcDbEntity
8
0
100
AcDbPolyline
90
5
70
1
43
0.0
10
-47.000000700354576
20
-100.00000149011612
10
-50.00000074505806
20
-91.000001356005669
10
-64.197826038901539
20
-96.726873192392389
10
-66.499519340307089
20
-100.76186554928006
10
-54.000000804662704
20
-108.00000160932541
0
LWPOLYLINE
5
125
100
AcDbEntity
8
0
100
AcDbPolyline
90
5
70
1
43
0.0
10
10.926791998883418
20
-66.354408909957883
10
32.006954648900773
20
-66.177916013078431
10
28.000000417232513
20
-75.00000111758709
10
20.000000298023224
20
-83.000001236796379
10
7.0000001043081284
20
-75.00000111758709
0
LWPOLYLINE
5
126
100
AcDbEntity
8
0
100
AcDbPolyline
90
4
70
1
43
0.0
10
-85
20
-65
10
-100
20
-120
10
100
20
-120
10
85
20
-65
0
LINE
5
127
100
AcDbEntity
8
0
100
AcDbLine
10
-75
20
-109.91619228857374
30
0
11
-75
21
-120
31
0
0
LINE
5
128
100
AcDbEntity
8
0
100
AcDbLine
10
-97.249870624156472
20
-109.91619228857374
30
0
11
-81.365242908159388
21
-99.993823080241015
31
0
0
LINE
5
129
100
AcDbEntity
8
0
100
AcDbLine
10
-75
20
-109.91619228857374
30
0
11
-81.365242908159388
21
-99.993823080241015
31
0
0
LWPOLYLINE
5
130
100
AcDbEntity
8
0
100
AcDbPolyline
90
5
70
1
43
0.0
10
59.384213395047638
20
-81.90896000954389
10
65.953912131805637
20
-74.642668633284984
10
70
20
-66.550492896896259
10
57.44295349403199
20
-66.550492896896259
10
52.117922018788718
20
-78.27581432141443
0
LWPOLYLINE
5
131
100
AcDbEntity
8
0
100
AcDbPolyline
90
16
70
1
43
0.0
10
-40
20
60.000000000000014
42
-0.16227766016837941
10
-70
20
70
42
0.18313574427954513
10
-40.478300723933096
20
88.02244565666885
42
-0.17867412592995602
10
-45.000000636936761
20
87.044889987134383
10
-45.000000670552254
20
89.000001326203346
42
0.44012148927304978
10
-40
20
95.035518029178604
10
-38.125151434317857
20
95.035518061414052
42
-0.46311212015820147
10
-38.125151429554762
20
90.000000032235477
10
38.000000566244125
20
90.000001341104507
42
-0.23303703389870009
10
38.000000566244125
20
95.000001415610313
10
40.000000596046448
20
95.000001415610313
42
0.6087348441540118
10
45.000000670552254
20
89.000001326203346
10
45.000000670552254
20
87.000001296401024
42
-0.1864835187512951
10
40.484698281313591
20
88.000001311302185
42
0.31864933663203382
10
69.999999999999986
20
69.999999999999986
42
-0.16227766016837886
10
40
20
60
0
LINE
5
132
100
AcDbEntity
8
0
100
AcDbLine
10
-34.628845612646096
20
10.020086722556208
30
0
11
-34.700947459374092
21
-9.0797359551238532
31
0
0
LINE
5
133
100
AcDbEntity
8
0
100
AcDbLine
10
30
20
55
30
0
11
-30
21
55
31
0
0
LINE
5
134
100
AcDbEntity
8
0
100
AcDbLine
10
-40.133516761102882
20
10.012893326449719
30
0
11
-40.000000596046448
21
-5.000000074505806
31
0
0
LWPOLYLINE
5
135
100
AcDbEntity
8
0
100
AcDbPolyline
90
5
70
1
43
0.0
10
53.82866093614021
20
-83.703361802519169
10
56.740198402558626
20
-86.431831195498688
10
47.243703385605571
20
-96.565498486272702
10
35.047659707525376
20
-94.113908151731266
10
41.000000610947609
20
-86.288139593611319
0
LINE
5
136
100
AcDbEntity
8
0
100
AcDbLine
10
-30
20
35
30
0
11
-2.5979570015829712
21
35
31
0
0
LINE
5
137
100
AcDbEntity
8
0
100
AcDbLine
10
-5
20
-90
30
0
11
13.56538215079433
21
-102.37692143386289
31
0
0
LWPOLYLINE
5
138
100
AcDbEntity
8
0
100
AcDbPolyline
90
4
70
1
43
0.0
10
66.171435933399579
20
-95.252125792891547
10
60.085976807174703
20
-89.166666666666686
10
53.574088548863799
20
-95.252125792891547
10
62.342871866799136
20
-102.5797136720962
0
LINE
5
139
100
AcDbEntity
8
0
100
AcDbLine
10
70
20
-90
30
0
11
62.342871866799136
21
-105.31425626640173
31
0
0
LINE
5
140
100
AcDbEntity
8
0
100
AcDbLine
10
-10.058821096605133
20
-9.1727600029406151
30
0
11
-9.9862465196880539
21
10.052289186897552
31
0
0
LINE
5
141
100
AcDbEntity
8
0
100
AcDbLine
10
-25.516014694844714
20
-9.0217109474802086
30
0
11
-25.44408658326293
21
10.032089185202775
31
0
0
ARC
5
142
100
AcDbEntity
8
0
100
AcDbCircle
10
-67.610832773495616
20
40.221665546991225
30
0
40
20.362315131894377
210
0
220
0
230
1
100
AcDbArc
50
263.26180487981225
51
329.86829747434371
0
LWPOLYLINE
5
143
100
AcDbEntity
8
0
100
AcDbPolyline
90
5
70
1
43
0.0
10
72.90218118063116
20
-74.719626906557139
10
76.515986565936458
20
-77.477394793446649
10
85.725678381490255
20
-77.477394793446649
10
82.045454545454533
20
-66.739140014007916
10
76.365411341548736
20
-66.739140014007916
0
LINE
5
144
100
AcDbEntity
8
0
100
AcDbLine
10
-20
20
10
30
0
11
-20.072234487729396
21
-9.1349593589380635
31
0
0
LINE
5
145
100
AcDbEntity
8
0
100
AcDbLine
10
62.342871866799136
20
-105.31425626640173
30
0
11
75
21
-110
31
0
0
LINE
5
146
100
AcDbEntity
8
0
100
AcDbLine
10
-31.804529118307837
20
-15.005916309275699
30
0
11
30.703125511724689
21
-15.005916309275701
31
0
0
LINE
5
147
100
AcDbEntity
8
0
100
AcDbLine
10
70
20
-75
30
0
11
60
21
-85
31
0
0
LINE
5
148
100
AcDbEntity
8
0
100
AcDbLine
10
-50
20
10
30
0
11
-50.071806974880566
21
-9.0217109474802086
31
0
0
LWPOLYLINE
5
149
100
AcDbEntity
8
0
100
AcDbPolyline
90
7
70
1
43
0.0
10
68.000001013278961
20
-92.00000137090683
10
69.000001028180122
20
-88.077246969919656
10
74.666250637952601
20
-88.077246969919656
10
83.000001236796379
20
-81.666250742260729
10
74.666250637952601
20
-81.666250742260729
10
70.000001043081284
20
-77.000001147389412
10
62.516371590935798
20
-84.871748856090193
0
LINE
5
150
100
AcDbEntity
8
0
100
AcDbLine
10
-60.000000894069672
20
16.000000238418579
30
0
11
-60.000000894069672
21
-15.000000223517418
31
0
0
LWPOLYLINE
5
151
100
AcDbEntity
8
0
100
AcDbPolyline
90
3
70
1
43
0.0
10
20.000000298023224
20
20.000000298023224
10
-19.999999999999996
20
20.158503240896483
42
0.19514555250651769
10
0
20
40.000000596046448
42
0.17617497767990603
0
LWPOLYLINE
5
152
100
AcDbEntity
8
0
100
AcDbPolyline
90
7
70
1
43
0.0
10
71.000001057982445
20
-92.00000137090683
10
65.559916885296047
20
-104.50522656473468
10
75.00000111758709
20
-108.00000160932541
10
80.750000588595867
20
-103.79351060794535
10
82.5
20
-99.93142944842532
10
79.000001177191734
20
-90.000001341104507
10
75.00000111758709
20
-92.00000137090683
0
LINE
5
153
100
AcDbEntity
8
0
100
AcDbLine
10
-50
20
30
30
0
11
-6.3020927596517478
21
30
31
0
0
LINE
5
154
100
AcDbEntity
8
0
100
AcDbLine
10
-20
20
55
30
0
11
-20
21
35
31
0
0
LINE
5
155
100
AcDbEntity
8
0
100
AcDbLine
10
-9.9862465196880539
20
10.052289186897552
30
0
11
-50
21
10
31
0
0
LINE
5
156
100
AcDbEntity
8
0
100
AcDbLine
10
-30
20
55
30
0
11
-30
21
35
31
0
0
LINE
5
157
100
AcDbEntity
8
0
100
AcDbLine
10
-40
20
30
30
0
11
-40
21
60
31
0
0
LINE
5
158
100
AcDbEntity
8
0
100
AcDbLine
10
60
20
-85
30
0
11
68.333333333333329
21
-93.333333333333343
31
0
0
LINE
5
159
100
AcDbEntity
8
0
100
AcDbLine
10
-5
20
55
30
0
11
-5
21
35
31
0
0
ARC
5
160
100
AcDbEntity
8
0
100
AcDbCircle
10
-60.222462735309875
20
28.241570659050382
30
0
40
12.787639418224314
210
0
220
0
230
1
100
AcDbArc
50
220.12782867216117
51
269.783709411404
0
LINE
5
161
100
AcDbEntity
8
0
100
AcDbLine
10
-15
20
55
30
0
11
-15
21
35
31
0
0
LWPOLYLINE
5
162
100
AcDbEntity
8
0
100
AcDbPolyline
90
6
70
1
43
0.0
10
48.170083601969296
20
-81.829916398030704
10
44.363741246049912
20
-77.823010404796435
10
50
20
-66.550492896896259
10
36.801451180373604
20
-66.550492896896259
10
33.789420996872806
20
-74.642668633284984
10
41.972487048115532
20
-83.256916469600952
0
LWPOLYLINE
5
163
100
AcDbEntity
8
0
100
AcDbPolyline
90
5
70
1
43
0.0
10
26.628341880193691
20
-118.37165811980631
10
23.500000350177288
20
-112.63636531477624
10
32.000000476837158
20
-108.00000160932541
10
42.871659155437015
20
-112.63636531477624
10
46.000000685453415
20
-118.37165811980631
0
LINE
5
164
100
AcDbEntity
8
0
100
AcDbLine
10
35
20
-65
30
0
11
30
21
-75
31
0
0
LINE
5
165
100
AcDbEntity
8
0
100
AcDbLine
10
40
20
-96.906423472210406
30
0
11
32.5
21
-105.88152905520249
31
0
0
LWPOLYLINE
5
166
100
AcDbEntity
8
0
100
AcDbPolyline
90
4
70
1
43
0.0
10
45.595533724216295
20
-110.31818346205083
10
35.682182684181754
20
-105.99153858713746
10
41.000000610947609
20
-99.000001475214958
10
53.487406160263532
20
-100.87413168058028
0
LWPOLYLINE
5
167
100
AcDbEntity
8
0
100
AcDbPolyline
90
6
70
1
43
0.0
10
-2.4233458425154115
20
-107.32309196538667
10
2.0000000298023224
20
-97.000001445412636
10
9.8734397405018832
20
-102.16154670539964
10
8.2286984209639336
20
-106.00000157952309
10
8.2286984209639336
20
-111.80737241180299
10
4.0125344125679527
20
-113.75897222047003
0
LINE
5
168
100
AcDbEntity
8
0
100
AcDbLine
10
40
20
-85
30
0
11
32.5
21
-95.39880936435776
31
0
0
LWPOLYLINE
5
169
100
AcDbEntity
8
0
100
AcDbPolyline
90
6
70
1
43
0.0
10
12.745695778942707
20
-100.18747799967657
10
-1.6738505803343506
20
-89.305952153531223
10
8.6284736471188772
20
-80.09398186742996
10
17.464081791878829
20
-85.232369857101617
10
12.129447324193707
20
-90.002409424733742
10
17.464081791878829
20
-95.968465785549427
0
LINE
5
170
100
AcDbEntity
8
0
100
AcDbLine
10
30
20
-75
30
0
11
40
21
-85
31
0
0
LINE
5
171
100
AcDbEntity
8
0
100
AcDbLine
10
70
20
-75
30
0
11
75
21
-80
31
0
0
LWPOLYLINE
5
172
100
AcDbEntity
8
0
100
AcDbPolyline
90
5
70
1
43
0.0
10
75
20
-112.50523297704058
10
68.671435933399579
20
-109.75215011120484
10
66.205074753826338
20
-118.00000175833702
10
78.75
20
-118.00000175833702
10
78.75
20
-110.16236111024145
0
LINE
5
173
100
AcDbEntity
8
0
100
AcDbLine
10
75
20
-65
30
0
11
70
21
-75
31
0
0
LINE
5
174
100
AcDbEntity
8
0
100
AcDbLine
10
70
20
-90
30
0
11
75
21
-90
31
0
0
LINE
5
175
100
AcDbEntity
8
0
100
AcDbLine
10
46.340167203938591
20
-111.92201811475833
30
0
11
50
21
-120
31
0
0
LINE
5
176
100
AcDbEntity
8
0
100
AcDbLine
10
32.5
20
-105.88152905520249
30
0
11
46.340167203938591
21
-111.92201811475833
31
0
0
LINE
5
177
100
AcDbEntity
8
0
100
AcDbLine
10
8.8814948316961395
20
-77.587663221130768
30
0
11
-5
21
-90
31
0
0
LINE
5
178
100
AcDbEntity
8
0
100
AcDbLine
10
-30.428350590786593
20
-99.584878813887713
30
0
11
-45
21
-100
31
0
0
LWPOLYLINE
5
179
100
AcDbEntity
8
0
100
AcDbPolyline
90
4
70
1
43
0.0
10
-47.400724575968169
20
-75.00000111758709
10
-44.000000655651093
20
-67.0000009983778
10
-27.084571178983179
20
-67.0000009983778
10
-36.000000536441803
20
-83.000001236796379
0
LINE
5
180
100
AcDbEntity
8
0
100
AcDbLine
10
55
20
-65
30
0
11
48.170083601969296
21
-78.659832796061409
31
0
0
LINE
5
181
100
AcDbEntity
8
0
100
AcDbLine
10
40
20
-85
30
0
11
54.085041800984648
21
-81.829916398030704
31
0
0
LWPOLYLINE
5
182
100
AcDbEntity
8
0
100
AcDbPolyline
90
5
70
1
43
0.0
10
-15.000000223517418
20
-88.000001311302185
10
-30.000000447034836
20
-78.000001162290573
10
-34.000000506639481
20
-85.000001266598701
10
-31.542285857712493
20
-91.000001356005669
10
-31.542285857712493
20
-88.000001311302185
0
LWPOLYLINE
5
183
100
AcDbEntity
8
0
100
AcDbPolyline
90
6
70
1
43
0.0
10
48.000000715255737
20
-112.00000166893005
10
51.000000759959221
20
-118.00000175833702
10
61.000000908970833
20
-118.00000175833702
10
66.013172130788888
20
-108.38132346972105
10
60.085976807174703
20
-106.98925029250601
10
56.171435933399572
20
-102.80040402406877
0
LWPOLYLINE
5
184
100
AcDbEntity
8
0
100
AcDbPolyline
90
6
70
1
43
0.0
10
4.2342026029399404
20
-118.3168574780002
10
7.0000001043081284
20
-116.6377040205688
10
7.0000001043081284
20
-118.3168574780002
10
-11.200415836190169
20
-118.3168574780002
10
-15
20
-114.95855056313742
10
-5.5166628045994406
20
-109.20108696293987
0
LINE
5
185
100
AcDbEntity
8
0
100
AcDbLine
10
-45
20
-100
30
0
11
-34.71614164261662
21
-109.01907669836265
31
0
0
LINE
5
186
100
AcDbEntity
8
0
100
AcDbLine
10
-30.594132842221981
20
-75.039463408951391
30
0
11
-10
21
-90
31
0
0
LINE
5
187
100
AcDbEntity
8
0
100
AcDbLine
10
10.060774529454712
20
-105.88152905520249
30
0
11
10.060774529454712
21
-120
31
0
0
LINE
5
188
100
AcDbEntity
8
0
100
AcDbLine
10
-49.348314401965112
20
-75.229150189538743
30
0
11
-36.188265684443955
21
-85.078926817902783
31
0
0
LINE
5
189
100
AcDbEntity
8
0
100
AcDbLine
10
50
20
-95
30
0
11
62.342871866799136
21
-105.31425626640173
31
0
0
LINE
5
190
100
AcDbEntity
8
0
100
AcDbLine
10
-75
20
-85
30
0
11
-64.15251641556182
21
-75.011781326502174
31
0
0
LWPOLYLINE
5
191
100
AcDbEntity
8
0
100
AcDbPolyline
90
6
70
1
43
0.0
10
-18.123202341947461
20
-100.52773766799803
10
-11.000000163912773
20
-95.000001415610313
10
-11.000000163912773
20
-101.00000150501728
10
-3.0000000447034836
20
-101.00000150501728
10
-5.9857152632607828
20
-106.24568487417783
10
-14.028971647713044
20
-111.36693790819021
0
LWPOLYLINE
5
192
100
AcDbEntity
8
0
100
AcDbPolyline
90
6
70
1
43
0.0
10
-21.207209903814235
20
-102.49136810922793
10
-16.998202325183655
20
-112.9411038805566
10
-19.248202358711268
20
-114.50000170618296
10
-14.748202291656046
20
-119.00000177323818
10
-33.000000491738319
20
-119.00000177323818
10
-33.000000491738319
20
-110.00000163912773
0
LINE
5
193
100
AcDbEntity
8
0
100
AcDbLine
10
60
20
-85
30
0
11
50
21
-95
31
0
0
LINE
5
194
100
AcDbEntity
8
0
100
AcDbLine
10
32.5
20
-95.39880936435776
30
0
11
56.171435933399572
21
-100.15712813320086
31
0
0
LWPOLYLINE
5
195
100
AcDbEntity
8
0
100
AcDbPolyline
90
6
70
1
43
0.0
10
-35.000000521540642
20
-107.00000159442425
10
-21.207209903814235
20
-98.494425410707606
10
-13.962119235792649
20
-90.88913311530392
10
-28.452300571835821
20
-91.000001356005669
10
-28.103605212677436
20
-100.37927538187404
10
-41.279631201475404
20
-101.4926843238533
0
LINE
5
196
100
AcDbEntity
8
0
100
AcDbLine
10
-20
20
-100
30
0
11
-34.71614164261662
21
-109.01907669836265
31
0
0
LINE
5
197
100
AcDbEntity
8
0
100
AcDbLine
10
5
20
-75
30
0
11
20
21
-85
31
0
0
LINE
5
198
100
AcDbEntity
8
0
100
AcDbLine
10
-75
20
-85
30
0
11
-65.054974534785941
21
-95.800574557600342
31
0
0
LINE
5
199
100
AcDbEntity
8
0
100
AcDbLine
10
48.170083601969296
20
-78.659832796061409
30
0
11
60
21
-85
31
0
0
LINE
5
200
100
AcDbEntity
8
0
100
AcDbLine
10
10
20
-65
30
0
11
5
21
-75
31
0
0
LINE
5
201
100
AcDbEntity
8
0
100
AcDbLine
10
-10
20
-80
30
0
11
-10
21
-100
31
0
0
LINE
5
202
100
AcDbEntity
8
0
100
AcDbLine
10
30
20
-75
30
0
11
14.191304182447029
21
-90.808695817552959
31
0
0
LINE
5
203
100
AcDbEntity
8
0
100
AcDbLine
10
-20
20
-100
30
0
11
-15
21
-113.23716352312069
31
0
0
LINE
5
204
100
AcDbEntity
8
0
100
AcDbLine
10
56.171435933399572
20
-100.15712813320086
30
0
11
46.340167203938591
21
-111.92201811475833
31
0
0
LINE
5
205
100
AcDbEntity
8
0
100
AcDbLine
10
-65.054974534785941
20
-95.800574557600342
30
0
11
-75
21
-109.91619228857374
31
0
0
LINE
5
206
100
AcDbEntity
8
0
100
AcDbLine
10
-68.892772081205237
20
-101.24780878375789
30
0
11
-53.696628803930224
21
-109.91619228857374
31
0
0
LINE
5
207
100
AcDbEntity
8
0
100
AcDbLine
10
-30.696895942910153
20
-90.158357468962095
30
0
11
-10
21
-90
31
0
0
LINE
5
208
100
AcDbEntity
8
0
100
AcDbLine
10
-10
20
-90
30
0
11
-20
21
-100
31
0
0
LINE
5
209
100
AcDbEntity
8
0
100
AcDbLine
10
-30.428350590786593
20
-99.584878813887713
30
0
11
-30.696895942910153
21
-90.158357468962095
31
0
0
LINE
5
210
100
AcDbEntity
8
0
100
AcDbLine
10
-49.348314401965112
20
-89.049067746187148
30
0
11
-65.054974534785941
21
-95.800574557600342
31
0
0
LINE
5
211
100
AcDbEntity
8
0
100
AcDbLine
10
-10
20
-80
30
0
11
-0.61849211134890192
21
-86.082212170044471
31
0
0
LINE
5
212
100
AcDbEntity
8
0
100
AcDbLine
10
-34.71614164261662
20
-109.01907669836265
30
0
11
-34.71614164261662
21
-120
31
0
0
LINE
5
213
100
AcDbEntity
8
0
100
AcDbLine
10
20.192806017294398
20
-95.749497567362809
30
0
11
10.060774529454712
21
-105.88152905520249
31
0
0
LINE
5
214
100
AcDbEntity
8
0
100
AcDbLine
10
-45
20
-100
30
0
11
-49.348314401965112
21
-89.049067746187148
31
0
0
LINE
5
215
100
AcDbEntity
8
0
100
AcDbLine
10
14.191304182447029
20
-90.808695817552959
30
0
11
32.5
21
-105.88152905520249
31
0
0
LINE
5
216
100
AcDbEntity
8
0
100
AcDbLine
10
-10
20
-100
30
0
11
-1.0333256091988809
21
-100
31
0
0
LINE
5
217
100
AcDbEntity
8
0
100
AcDbLine
10
4.2826910753971648
20
-116.44871794950157
30
0
11
10.060774529454712
21
-112.94076452760125
31
0
0
LINE
5
218
100
AcDbEntity
8
0
100
AcDbLine
10
32.5
20
-105.88152905520249
30
0
11
20.355578563212696
21
-111.92201811475833
31
0
0
LINE
5
219
100
AcDbEntity
8
0
100
AcDbLine
10
-64.15251641556182
20
-75.011781326502174
30
0
11
-64.15251641556182
21
-65
31
0
0
LINE
5
220
100
AcDbEntity
8
0
100
AcDbLine
10
-36.188265684443955
20
-85.078926817902783
30
0
11
-30.428350590786593
21
-99.584878813887713
31
0
0
LINE
5
221
100
AcDbEntity
8
0
100
AcDbLine
10
-36.188265684443955
20
-85.078926817902783
30
0
11
-25
21
-65
31
0
0
LINE
5
222
100
AcDbEntity
8
0
100
AcDbLine
10
-64.15251641556182
20
-75.011781326502174
30
0
11
-49.348314401965112
21
-89.049067746187148
31
0
0
LINE
5
223
100
AcDbEntity
8
0
100
AcDbLine
10
-17.400831672380338
20
-114.69474123855142
30
0
11
-12.095572910931748
21
-120
31
0
0
LINE
5
224
100
AcDbEntity
8
0
100
AcDbLine
10
-53.696628803930224
20
-109.91619228857374
30
0
11
-45
21
-100
31
0
0
LINE
5
225
100
AcDbEntity
8
0
100
AcDbLine
10
-5
20
-107.16602687410442
30
0
11
-17.400831672380338
21
-114.69474123855142
31
0
0
LINE
5
226
100
AcDbEntity
8
0
100
AcDbLine
10
-19.907537446503731
20
-40
30
0
11
-19.907537446503731
21
-60
31
0
0
LINE
5
227
100
AcDbEntity
8
0
100
AcDbLine
10
-49.971969166645387
20
-40
30
0
11
-49.971969166645387
21
-60
31
0
0
ARC
5
228
100
AcDbEntity
8
0
100
AcDbCircle
10
-75
20
-5.0000000000000577
30
0
40
24.999999999999957
210
0
220
0
230
1
100
AcDbArc
50
233.13010235415587
51
270
0
LWPOLYLINE
5
229
100
AcDbEntity
8
0
100
AcDbPolyline
90
4
70
1
43
0.0
10
-15
20
-40
10
-15
20
-60
10
-60
20
-60
10
-60
20
-40
0
LINE
5
230
100
AcDbEntity
8
0
100
AcDbLine
10
-43.101917263430764
20
-9.0480222870233398
30
0
11
-50.071806974880566
21
-9.0217109474802086
31
0
0
LINE
5
231
100
AcDbEntity
8
0
100
AcDbLine
10
80
20
-110.62851253280346
30
0
11
80
21
-120
31
0
0
LINE
5
232
100
AcDbEntity
8
0
100
AcDbLine
10
-10.058821096605133
20
-9.1727600029406151
30
0
11
-37.332464387668992
21
-9.0698019764986082
31
0
0
LINE
5
233
100
AcDbEntity
8
0
100
AcDbLine
10
-39.990577835558355
20
-40
30
0
11
-39.990577835558355
21
-60
31
0
0
LWPOLYLINE
5
234
100
AcDbEntity
8
0
100
AcDbPolyline
90
3
70
1
43
0.0
10
-20.000000298023217
20
-22.000000327825575
42
-0.17663286843025372
10
-40.000000596046448
20
-5.0000000745058015
42
-0.13226057652464565
10
-60.000000894069672
20
-22.000000327825546
0
LINE
5
235
100
AcDbEntity
8
0
100
AcDbLine
10
68.671435933399579
20
-107.65712813320086
30
0
11
62.448397837192537
21
-120
31
0
0
LINE
5
236
100
AcDbEntity
8
0
100
AcDbLine
10
-54.782278241868042
20
-40
30
0
11
-54.782278241868042
21
-60
31
0
0
LINE
5
237
100
AcDbEntity
8
0
100
AcDbLine
10
-35.060011033455126
20
-40
30
0
11
-35.060011033455126
21
-60
31
0
0
ARC
5
238
100
AcDbEntity
8
0
100
AcDbCircle
10
-87.5
20
-5
30
0
40
20.155644370746373
210
0
220
0
230
1
100
AcDbArc
50
262.8749836510982
51
330.2551187030578
0
LINE
5
239
100
AcDbEntity
8
0
100
AcDbLine
10
-70
20
-15
30
0
11
-48.875785827846471
21
-14.822605986120493
31
0
0
LINE
5
240
100
AcDbEntity
8
0
100
AcDbLine
10
10.171108697467384
20
10.012893326449719
30
0
11
10.099034005815755
21
-9.0797359551238532
31
0
0
LINE
5
241
100
AcDbEntity
8
0
100
AcDbLine
10
34.658549748575169
20
9.8417956864193492
30
0
11
34.577928236362808
21
-9.1800581399656718
31
0
0
LINE
5
242
100
AcDbEntity
8
0
100
AcDbLine
10
50.60386020045928
20
-9.1800581399656718
30
0
11
50.539916096220281
21
9.8417956864193492
31
0
0
LINE
5
243
100
AcDbEntity
8
0
100
AcDbLine
10
-5
20
-107.16602687410442
30
0
11
4.2826910753971648
21
-116.44871794950157
31
0
0
LWPOLYLINE
5
244
100
AcDbEntity
8
0
100
AcDbPolyline
90
4
70
1
43
0.0
10
82.045454545454533
20
-87.46132005778378
10
86.000001281499863
20
-99.000001475214958
10
94.000001400709152
20
-102.00000151991844
10
88.000001311302185
20
-83.000001236796379
0
LINE
5
245
100
AcDbEntity
8
0
100
AcDbLine
10
5
20
55
30
0
11
5
21
35
31
0
0
LINE
5
246
100
AcDbEntity
8
0
100
AcDbLine
10
6.5767083034150051
20
30
30
0
11
50
21
30
31
0
0
LINE
5
247
100
AcDbEntity
8
0
100
AcDbLine
10
60.000000894069672
20
15.000000223517418
30
0
11
60
21
0.15885359689304268
31
0
0
LINE
5
248
100
AcDbEntity
8
0
100
AcDbLine
10
40
20
60
30
0
11
40
21
30
31
0
0
LINE
5
249
100
AcDbEntity
8
0
100
AcDbLine
10
-75
20
-30
30
0
11
75
21
-30
31
0
0
LINE
5
250
100
AcDbEntity
8
0
100
AcDbLine
10
1.9407474158480698
20
-94.62716494389872
30
0
11
-5
21
-107.16602687410442
31
0
0
LINE
5
251
100
AcDbEntity
8
0
100
AcDbLine
10
-60.270735740946904
20
15.454022355819975
30
0
11
60.000000894069672
21
15.000000223517418
31
0
0
LWPOLYLINE
5
252
100
AcDbEntity
8
0
100
AcDbPolyline
90
5
70
1
43
0.0
10
86.000001281499863
20
-102.00000151991844
10
82.000001221895218
20
-110.00000163912773
10
82.000001221895218
20
-118.91729629590158
10
98.50878186502193
20
-118.91729629590158
10
95.056983486766313
20
-106.26070224229765
0
LINE
5
253
100
AcDbEntity
8
0
100
AcDbLine
10
20.231840292108558
20
9.8417956864193492
30
0
11
20.160268115254002
21
-9.117717122378405
31
0
0
LINE
5
254
100
AcDbEntity
8
0
100
AcDbLine
10
5.9529058630139193
20
-73.094188273972151
30
0
11
-10
21
-73.094188273972151
31
0
0
LINE
5
255
100
AcDbEntity
8
0
100
AcDbLine
10
50.539916096220281
20
9.8417956864193492
30
0
11
10.171108697467384
21
10.012893326449719
31
0
0
LINE
5
256
100
AcDbEntity
8
0
100
AcDbLine
10
39.594002983682152
20
9.8417956864193492
30
0
11
39.528358346309759
21
-5.6464116458200468
31
0
0
LINE
5
257
100
AcDbEntity
8
0
100
AcDbLine
10
-25.078619702368101
20
-40
30
0
11
-25.078619702368101
21
-60
31
0
0
LINE
5
258
100
AcDbEntity
8
0
100
AcDbLine
10
25.357118651642743
20
-9.117717122378405
30
0
11
25.437926865048812
21
9.9481870166139057
31
0
0
LINE
5
259
100
AcDbEntity
8
0
100
AcDbLine
10
75
20
-80
30
0
11
89.090909090909079
21
-80
31
0
0
LINE
5
260
100
AcDbEntity
8
0
100
AcDbLine
10
20
20
55
30
0
11
20
21
35
31
0
0
LINE
5
261
100
AcDbEntity
8
0
100
AcDbLine
10
30
20
35
30
0
11
30
21
55
31
0
0
LINE
5
262
100
AcDbEntity
8
0
100
AcDbLine
10
75
20
-110
30
0
11
82.5
21
-105.31425626640173
31
0
0
LINE
5
263
100
AcDbEntity
8
0
100
AcDbLine
10
2.7688904055070287
20
35
30
0
11
30
21
35
31
0
0
LINE
5
264
100
AcDbEntity
8
0
100
AcDbLine
10
85
20
-100
30
0
11
80
21
-86.451612903225794
31
0
0
LWPOLYLINE
5
265
100
AcDbEntity
8
0
100
AcDbPolyline
90
3
70
1
43
0.0
10
60.000000894069672
20
-22.000000327825546
10
20.000000298023224
20
-22.000000327825546
42
0.12225833848744659
10
40.000000596046441
20
-5.0000000745058104
42
0.13226057652464573
0
LINE
5
266
100
AcDbEntity
8
0
100
AcDbLine
10
50
20
-40
30
0
11
50
21
-60
31
0
0
LINE
5
267
100
AcDbEntity
8
0
100
AcDbLine
10
20
20
-40
30
0
11
20
21
-60
31
0
0
LINE
5
268
100
AcDbEntity
8
0
100
AcDbLine
10
75
20
-90
30
0
11
89.090909090909079
21
-80
31
0
0
LINE
5
269
100
AcDbEntity
8
0
100
AcDbLine
10
25
20
-40
30
0
11
25
21
-60
31
0
0
LINE
5
270
100
AcDbEntity
8
0
100
AcDbLine
10
85
20
-100
30
0
11
80
21
-110.62851253280346
31
0
0
LINE
5
271
100
AcDbEntity
8
0
100
AcDbLine
10
10.099034005815755
20
-9.0797359551238532
30
0
11
36.674441267500164
21
-9.1800581399656718
31
0
0
LWPOLYLINE
5
272
100
AcDbEntity
8
0
100
AcDbPolyline
90
4
70
1
43
0.0
10
60
20
-60
10
15
20
-60
10
15
20
-40
10
60
20
-40
0
ARC
5
273
100
AcDbEntity
8
0
100
AcDbCircle
10
68.32454672915064
20
41.649093458301266
30
0
40
21.71382949249309
210
0
220
0
230
1
100
AcDbArc
50
212.44451915443466
51
274.42537849140933
0
LINE
5
274
100
AcDbEntity
8
0
100
AcDbLine
10
85
20
-100
30
0
11
95.950387400244125
21
-105.15142046756179
31
0
0
ARC
5
275
100
AcDbEntity
8
0
100
AcDbCircle
10
60.046834803058687
20
27.406330956863464
30
0
40
12.406419132054092
210
0
220
0
230
1
100
AcDbArc
50
269.78370941140383
51
323.34639499180906
0
LINE
5
276
100
AcDbEntity
8
0
100
AcDbLine
10
15
20
55
30
0
11
15
21
35
31
0
0
LINE
5
277
100
AcDbEntity
8
0
100
AcDbLine
10
-75
20
-65
30
0
11
-75
21
-30
31
0
0
LINE
5
278
100
AcDbEntity
8
0
100
AcDbLine
10
75
20
-30
30
0
11
75
21
-65
31
0
0
LINE
5
279
100
AcDbEntity
8
0
100
AcDbLine
10
48.875785827846478
20
-14.822605986120506
30
0
11
70
21
-15
31
0
0
LINE
5
280
100
AcDbEntity
8
0
100
AcDbLine
10
60
20
0.15885359689304268
30
0
11
60.126602651958564
21
-14.917086544762215
31
0
0
LINE
5
281
100
AcDbEntity
8
0
100
AcDbLine
10
55
20
-40
30
0
11
55
21
-60
31
0
0
LINE
5
282
100
AcDbEntity
8
0
100
AcDbLine
10
43.235720065950872
20
-9.2048269729673748
30
0
11
50.60386020045928
21
-9.1800581399656718
31
0
0
LINE
5
283
100
AcDbEntity
8
0
100
AcDbLine
10
35
20
-40
30
0
11
35
21
-60
31
0
0
ARC
5
284
100
AcDbEntity
8
0
100
AcDbCircle
10
74.999999999999986
20
-4.9999999999999396
30
0
40
25.000000000000064
210
0
220
0
230
1
100
AcDbArc
50
270
51
306.86989764584393
0
LINE
5
285
100
AcDbEntity
8
0
100
AcDbLine
10
40
20
-40
30
0
11
40
21
-60
31
0
0
ARC
5
286
100
AcDbEntity
8
0
100
AcDbCircle
10
91.038466640131105
20
2.0769332802621743
30
0
40
27.096839830992007
210
0
220
0
230
1
100
AcDbArc
50
219.06625451597719
51
267.80364312986683
0
ENDSEC
0
SECTION
2
OBJECTS
0
DICTIONARY
5
C
100
AcDbDictionary
3
ACAD_GROUP
350
D
3
ACAD_MLINESTYLE
350
17
0
DICTIONARY
5
D
100
AcDbDictionary
0
DICTIONARY
5
1A
330
C
100
AcDbDictionary
0
DICTIONARY
5
17
100
AcDbDictionary
0
ENDSEC
0
EOF
